<?xml version="1.0" encoding="utf-8"?>
<!-- Generator: Adobe Illustrator 19.0.0, SVG Export Plug-In . SVG Version: 6.00 Build 0)  -->
<svg version="1.1" id="Layer_1" xmlns="http://www.w3.org/2000/svg" xmlns:xlink="http://www.w3.org/1999/xlink" x="0px" y="0px"
	 viewBox="0 0 2000 730.5" style="enable-background:new 0 0 2000 730.5;" xml:space="preserve">
<style type="text/css">
	.st0{stroke:#000000;stroke-width:10;stroke-miterlimit:10;}
	.st1{stroke:#000000;stroke-width:20;stroke-miterlimit:10;}
	.st2{fill:#58B947;stroke:#58B947;stroke-width:10;stroke-miterlimit:10;}
</style>
<path id="XMLID_3_" class="st0" d="M362.6,141.2v62.7c-43.7-21.4-83.9-32.1-120.6-32.1c-47.1,0-86.8,15.2-119,45.6
	c-32.2,30.4-48.4,67.8-48.4,112c0,45.1,16.5,82.8,49.5,113c33,30.2,74.3,45.3,123.9,45.3c36.1,0,74.2-11.3,114.5-34V517
	c-36.7,19.5-76.5,29.3-119.3,29.3c-62.8,0-116.5-21.2-161-63.7C37.7,440,15.5,388.8,15.5,328.8c0-58.9,21.9-109.4,65.7-151.3
	c43.8-42,96.6-63,158.3-63C279.1,114.5,320.2,123.4,362.6,141.2z"/>
<path id="XMLID_8_" class="st1" d="M932.1,666.5h90v31.5H860.7l120.4-128c9-9.9,13.5-20.8,13.5-32.6c0-14-4.8-26.1-14.3-36.4
	c-9.5-10.3-20.7-15.4-33.6-15.4c-10.6,0-20.6,3.4-30,10.2c-9.3,6.8-15.4,17.3-18.3,31.5h-31.2c3.1-23.2,12.3-41.3,27.5-54.3
	c15.3-12.9,33.2-19.4,53.9-19.4c20.7,0,38.6,8.1,54,24.4c15.3,16.3,23,35.5,23,57.8c0,10.8-1.9,20.6-5.8,29.6
	c-3.9,9-10.8,18.7-20.6,29.2L932.1,666.5z"/>
<path id="XMLID_10_" class="st2" d="M1443.6,192.7l-41,40.4c-41.4-40.5-89.2-60.8-143.5-60.8c-47.5,0-87.1,15.3-118.7,45.8
	c-31.6,30.5-47.4,68.7-47.4,114.4c0,40.1,15.3,76.1,46,108.2c30.6,32.1,72.9,48.2,126.8,48.2c80.8,0,131.6-35.1,152.4-105.3h-109.5
	v-55.4h172.8c0,27.8-1.9,49.9-5.6,66.4c-3.7,16.5-11.4,34.7-23.1,54.6c-11.7,19.9-27.2,37.8-46.6,53.5
	c-19.4,15.8-40.2,27.1-62.4,33.8c-22.2,6.8-48.6,10.2-79.4,10.2c-70,0-125.8-22-167.5-66c-41.7-44-62.5-94.3-62.5-150.9
	c0-59.6,21.3-110.3,64-152.1c42.6-41.9,94.3-62.8,155-62.8c36.1,0,69,5.5,98.8,16.4C1382,142.4,1412.5,162.8,1443.6,192.7z"/>
<path id="XMLID_15_" class="st0" d="M793.1,177.6c-43.7-42.1-95.8-63.1-156.2-63.1c-61.9,0-115,20.9-159.1,62.6
	c-44.1,41.8-66.2,91.9-66.2,150.4c0,1.6,0,3.3,0.1,4.9c0,0.9,0,1.8,0.1,2.7c0,0.6,0,1.2,0.1,1.8c0,1.2,0.1,2.5,0.2,3.7c0,0,0,0,0,0
	c0.2,4,0.5,8.1,1,12c0.1,0.6,0.1,1.2,0.2,1.8c0.1,0.5,0.1,0.9,0.2,1.4c20.4,176.8,221.8,342.2,221.8,342.2s196.3-161.2,221-335.3
	c1.3-8.5,2.1-17.2,2.4-26.2c0-0.3,0-0.6,0-0.9c0-1.1,0.1-2.2,0.1-3.3c0-1.6,0.1-3.2,0.1-4.9C858.6,269.6,836.8,219.7,793.1,177.6z
	 M635.1,480.1C552.8,480.1,486,413.3,486,331s66.8-149.1,149.1-149.1S784.2,248.6,784.2,331S717.5,480.1,635.1,480.1z"/>
<path id="XMLID_13_" class="st2" d="M1984.5,327.5c0-57.9-21.8-107.8-65.5-149.9c-43.7-42.1-95.8-63.1-156.2-63.1
	c-61.9,0-115,20.9-159.1,62.6c-44.1,41.8-66.2,91.9-66.2,150.4c0,0.1,0,0.2,0,0.4c0,0.1,0,0.2,0,0.3c0,1,0,2,0,3c0,0.3,0,0.6,0,0.8
	c0.2,12,1.2,23.6,3.1,34.9c27.2,172.6,220.3,331.2,220.3,331.2s187.9-154.3,219.1-324.2c2.7-13.5,4.1-27.4,4.3-42c0-0.2,0-0.3,0-0.5
	c0-1.1,0-2.2,0-3.3c0-0.1,0-0.2,0-0.3C1984.5,327.7,1984.5,327.6,1984.5,327.5z M1761,476.6c-82.3,0-149.1-66.8-149.1-149.1
	s66.8-149.1,149.1-149.1c82.3,0,149.1,66.8,149.1,149.1S1843.4,476.6,1761,476.6z"/>
</svg>
